<svg width="15" height="15" viewBox="0 0 15 15" fill="none" xmlns="http://www.w3.org/2000/svg">
<path d="M5.06836 1.63672C4.49414 1.7832 4.04297 2.30469 4.04297 2.82617C4.04297 2.91406 3.90234 2.92578 2.6543 2.94336C1.31836 2.96094 1.24805 2.9668 0.984375 3.10156C0.650391 3.27148 0.345703 3.57617 0.164062 3.92773L0.0292969 4.19141V8.17578V12.1602L0.164062 12.4238C0.357422 12.793 0.667969 13.0977 1.01953 13.2559L1.31836 13.3906H7.5H13.6816L13.9863 13.25C14.3789 13.0742 14.7188 12.7109 14.877 12.2832C15 11.9551 15 11.8848 15 8.18164C15 4.99414 14.9883 4.37305 14.9121 4.12109C14.8008 3.74609 14.4141 3.30664 14.0273 3.10742C13.752 2.9668 13.6992 2.96094 12.3516 2.94336L10.9688 2.91992L10.9277 2.70898C10.8457 2.27539 10.6113 1.94726 10.2246 1.74219C9.99609 1.61914 9.92578 1.61328 7.61719 1.60156C6.31055 1.5957 5.16797 1.61328 5.06836 1.63672ZM9.99609 2.48047C10.1367 2.60351 10.1602 2.67383 10.1895 3.07226C10.2188 3.42383 10.2539 3.54687 10.3418 3.61133C10.4297 3.67578 10.7637 3.69336 11.9766 3.69336C13.377 3.69336 13.5176 3.70508 13.7402 3.81055C13.8926 3.88672 14.0273 4.00976 14.1094 4.15625L14.2383 4.38476L14.2266 8.22852C14.209 11.9961 14.209 12.0664 14.0859 12.2246C14.0215 12.3125 13.8926 12.4414 13.8047 12.5059C13.6465 12.6289 13.6113 12.6289 7.5 12.6289C1.38867 12.6289 1.35352 12.6289 1.19531 12.5059C1.10742 12.4414 0.978516 12.3125 0.914062 12.2246C0.791016 12.0664 0.791016 12.0137 0.791016 8.17578C0.791016 4.33789 0.791016 4.28516 0.914062 4.12695C1.21289 3.72266 1.18945 3.72851 3 3.69336C4.86328 3.6582 4.80469 3.67578 4.80469 3.16016C4.80469 2.81445 4.88672 2.58008 5.05664 2.45117C5.17383 2.35742 5.39648 2.3457 7.51172 2.3457H9.83789L9.99609 2.48047Z" fill="black"/>
<path d="M12.3809 4.70103C12.123 4.76549 11.8945 5.05846 11.8945 5.31041C11.8945 5.86119 12.416 6.19517 12.8906 5.94908C13.1367 5.82017 13.2422 5.63853 13.2422 5.32799C13.2422 4.85924 12.8496 4.57799 12.3809 4.70103Z" fill="black"/>
<path d="M6.62041 4.77842C5.29619 5.15342 4.35284 6.15537 4.06573 7.50889C3.71416 9.16123 4.76885 10.9835 6.38018 11.4933C6.91924 11.6632 7.76299 11.7042 8.28448 11.5812C9.62627 11.2647 10.6399 10.2218 10.9271 8.86826C11.0911 8.08897 10.9915 7.36826 10.6106 6.58897C10.2239 5.80967 9.48565 5.15928 8.65362 4.86631C8.17315 4.69053 7.09502 4.64951 6.62041 4.77842ZM8.37823 5.61045C9.66729 6.03819 10.47 7.45029 10.1712 8.75108C9.74346 10.5968 7.72198 11.4698 6.09307 10.5147C4.04815 9.31944 4.49932 6.17881 6.79619 5.55186C7.25323 5.42881 7.89776 5.45225 8.37823 5.61045Z" fill="black"/>
</svg>
